<?xml version="1.0" encoding="UTF-8"?>
<svg xmlns="http://www.w3.org/2000/svg" viewBox="295 0 1024 1024" width="1024" height="1024" role="img" aria-label="Rook logo on bright purple gradient background">
  <defs>
    <linearGradient id="bg" x1="0" y1="0" x2="0" y2="1">
      <stop offset="0%" stop-color="#8b5cf6"/>
      <stop offset="38%" stop-color="#7c3aed"/>
      <stop offset="100%" stop-color="#2f263b"/>
    </linearGradient>
    <radialGradient id="glow" cx="50%" cy="28%" r="72%">
      <stop offset="0%" stop-color="#c4b5fd" stop-opacity="0.45"/>
      <stop offset="40%" stop-color="#a78bfa" stop-opacity="0.22"/>
      <stop offset="100%" stop-color="#a78bfa" stop-opacity="0"/>
    </radialGradient>
  </defs>
  <rect x="295" y="0" width="1024" height="1024" fill="url(#bg)"/>
  <rect x="295" y="0" width="1024" height="1024" fill="url(#glow)"/>
  <path d="m 752,154 c 0.54756,3.111 5.70191,12.86209 0,18 0.16674,7.55966 -8.56731,17.65272 1,20 7.71102,1.62232 13.26873,5.39794 21,7 6.16817,4.9439 12.1017,-2.60889 19,-3 5.57782,-3.42218 11.84989,-6.15011 19,-8 -7.82009,-2.7824 -14.28064,-4.24588 2.20593,-6 8.26345,-2.36889 18.35556,-2.90912 26.89703,-5 10.7639,-1.27042 20.50484,-3.5638 31.10297,-5 7.03666,-2.59569 16.40617,-2.85852 23.89703,-5 14.28118,-2.16638 -10.67094,-2.67696 -15.30889,-4 -16.62794,-0.97008 -32.72977,-2.46627 -50.79407,-2 -9.66523,1.77107 -21.05087,1.82172 -31.30889,3 -6.78541,1.21071 -14.93194,-4.64783 -22.79407,0 -12.6981,1.33148 2.58988,-2.85026 6.10296,-5 5.33493,-6.24983 14.5047,2.32962 23,-2 15.39426,-0.2724 27.36634,-3.96699 44,-3 9.92701,1.57793 20.24121,2.76866 31.51481,3 8.39227,2.47045 20.78221,0.94323 29.58815,3 9.54837,1.14579 17.04409,3.91305 9.89704,-5 -4.14281,-3.52385 -6.1521,-9.18123 -12,-11 -3.54764,-4.45236 -9.70065,-6.29935 -13,-11 -6.17369,-3.49298 -13.70251,-5.63082 -22,-7 -7.11172,-2.88828 -15.16582,-4.83418 -24,-6 -6.73863,-2.5947 -15.64812,-3.01855 -20,-8 -7.6932,-2.08904 -15.07296,-5.97613 -22.10296,-1 -4.84265,4.15735 -14.42758,3.57242 -16.89704,10.10296 -2.7076,6.25808 -1.37637,16.55499 -11,15.89704 -5.26577,2.40089 -7.60991,7.72342 -13,10 -3.32043,3.51106 -9.95714,4.27138 -14,7 z m 191,483 c 4.44804,4.21863 5.95882,11.37451 10,16 2.39626,6.60374 6.49817,11.50183 9,18 2.37225,4.97539 10.14672,16.19987 4,5 -1.55848,-7.77485 -6.02796,-12.6387 -8,-20 -3.49294,-5.50706 -5.21079,-12.78921 -9,-18 -1.79188,-7.54145 -6.27505,-12.39161 -8,-20 -2.35592,-4.97741 -5.62744,-9.03923 -10,-12 -2.91458,-3.75209 -6.24791,-7.08542 -10,-10 2.8324,5.83426 6.92951,10.40382 9,17 4.29193,4.37473 5.46516,11.86817 10,16 0.24528,3.39937 2.75916,4.61054 3,8 z M 826,950 c -4.08927,1.56918 -3.28678,8.20513 0,0 z m 0,0 c 10.09963,-4.37896 9.688,3.61954 17,-3 -2.89734,-3.97267 -17.14149,-2.23136 -17,3 z m 81,-448 c 3.53699,4.46301 8.29061,7.70939 9,15 3.94739,5.38595 6.3292,12.33747 9,19 4.05028,4.94972 5.70936,12.29064 9,18 4.35384,3.57182 -6.2625,-16.5099 -4,-14 -1.06634,-7.96798 -5.15913,-12.90951 -7,-20.10296 -2.41457,-5.88444 -5.01151,-11.58652 -9,-15.89704 -2.41369,-5.91964 -7.50263,-9.16404 -11,-14 -3.37305,-4.62695 -8.30858,-7.69142 -11,-13 -5.10901,-2.89099 -6.89099,-9.10901 -12,-12 3.65128,5.34872 7.52824,10.47176 11,16 4.14952,3.85048 5.93457,10.06543 11,13 0.71236,3.47751 3.72585,4.93885 5,8 z m 66,187 c -3.0712,-0.51625 0.51625,3.0712 0,0 z M 871,520 c 4.34435,3.32231 5.65565,9.67769 10,13 2.40149,5.59851 5.94223,10.05777 9,15 6.57453,2.42547 8.4673,9.5327 15,12 3.35617,4.97716 8.64936,8.01731 13,12 -2.32181,-5.67819 -7.61835,-8.38165 -10,-14 -4.25527,-3.74473 -7.49661,-8.50339 -11,-13 -3.48783,-4.51217 -7.83871,-8.16129 -10,-14 -4.41408,-3.58592 -5.87626,-10.12374 -10,-14 -2.60533,-5.39467 -6.67378,-9.32622 -9,-15 -3.24306,-4.4236 -6.57175,-8.76158 -11,-12 -1.73217,-4.47754 -11.27173,-8.91015 -9,-8 4.33406,3.99927 6.10204,10.56463 10,15 2.59404,5.73929 6.40596,10.26071 9,16 1.51555,1.64941 3.30435,4.4762 4,7 z m -5,227 c -2.09112,-6.90888 -7.05929,-10.94071 -9,-18 -1.10556,5.27632 3.93505,12.70191 5,19.10296 2.22701,6.73868 5.02319,12.90817 7,19.89704 3.50602,6.04376 4.22046,22.33604 6,5.89704 2.41298,-10.09513 -2.08993,-15.60061 -6,-21.89704 -0.18064,-2.20019 -1.81139,-3.78283 -3,-5 z M 764,120 c -1.57339,-7.02859 -15.09845,-7.6456 -22,-6 -4.41811,3.58189 -8.41811,7.58189 -12,12 4.25785,2.40881 5.51059,7.82274 10,10 3.64528,4.82081 17.68496,5.48078 22,1 2.64571,-4.48708 9.67189,-6.5393 5,-13 -2.99694,0.90859 -0.003,-4.90859 -3,-4 z m 82,232 c -9.36954,-0.0362 -15.67784,2.98883 -18,10 -2.68369,5.64964 -7.05629,9.61038 -9,16 -1.8785,10.56701 -1.67447,27.6178 1,37 0.41161,-9.92172 4.09576,-16.57091 5,-26 3.40658,-6.26009 3.79671,-15.53662 7,-22 5.34695,-5.31972 18.79992,-2.53342 25,-7 14.55295,1.32629 22.77426,-1.05106 8,-5 -3.31431,-3.8841 -11.89112,-2.88251 -19,-3 z M 822,140 c -6.48198,1.8493 13.40672,-12.80565 7,-8 2.30488,-1.98146 18.729,-6.90729 14,-3 -1.32364,7.67636 -8.31767,9.68233 -16,11 z M 661,935 c -6.60193,8.7371 2.22078,-2.90585 6,0 3.44589,2.17567 18.96231,-1.75735 10,-4 -4.92314,1.82106 -14.44128,-1.20499 -16,4 z M 936,559 c 3.66241,0.0624 -1.19978,-7.34246 0,0 z m 0,160 c 0.21114,12.87781 -2.86156,22.47177 -3,35 -2.47858,9.13856 -1.18974,23.69483 3,9 1.53373,-7.90036 7.01192,-13.60525 4,-23.20593 -1.9341,-6.24075 0.0643,-16.7662 -4,-20.79407 z m 2,-160 c -3.97264,-0.19447 1.39861,4.98202 0,0 z m -83,168 c -0.51625,3.0712 3.0712,-0.51625 0,0 z M 739.88392,946.36158 C 737.22556,943.13177 729.79746,936.35957 727,940.10296 c -0.74449,1.05863 -6.63999,3.62538 -9.00927,2.98178 L 703,945 c -4.40602,4.6283 -12.09948,5.96916 -19.10296,8 -11.63322,7.18385 -10.98684,-9.46157 -16.89704,-8 -3.41806,3.91527 -6.024,8.64267 -13,9 5.61089,-12.84653 -8.8098,-4.86443 -15.10296,-4 -8.89813,3.34377 -18.21956,0.78667 -28.20593,0 -12.17439,-0.44241 -14.27964,-5.26949 -19.6035,-7.10577 C 586.19756,931.77402 600.31017,935.42908 604,931 c 12.83382,-0.59277 13.18271,7.85444 27.51481,4 3.85743,2.07687 6.38375,-4.77327 13.48519,-7 8.41149,-0.92184 7.16275,-11.50392 11,-17 19.52152,0.55011 2.78653,-2.10316 8,-6 4.18343,-3.48324 7.79836,-7.53498 10,-13 1.47561,-7.55872 5.06753,-13.00112 7,-20.10296 2.31336,-6.65232 5.70104,-12.23032 7,-19.89704 3.15891,-5.17442 3.66849,-12.99818 7,-18 0.35461,-8.07681 6.87388,-14.01527 4,-22.10296 -2.51678,-5.94702 -2.90857,-15.58215 -8,-10.89704 -5.55005,-9.78329 1.96018,-32.62685 -5,-41 -2.15618,-11.91353 -6.79873,-14.51161 -5,2.72074 -3.20954,0.60724 -5.70162,-11.08748 -8,-15.72074 -2.93824,-6.06176 -5.65582,-12.34418 -8,-19 -2.93824,-6.06176 -5.65582,-12.34418 -8,-19 -3.06003,-2.13665 -7.88416,-22.94246 -8,-8.69111 0.91835,7.94342 0.79825,19.43823 -3,7.69111 -4.15181,-4.51485 -6.16517,-11.16816 -10,-16 -2.43847,-6.89486 -6.97082,-11.69584 -9,-19 -4.53061,-4.46939 -5.94355,-12.05645 -10,-17 -2.8038,-6.23052 -6.45773,-11.61092 -8,-19.10296 -2.26996,-6.73004 -4.84705,-13.15296 -7,-20 -2.30591,-6.9931 -5.15221,-13.44582 -7,-20.89704 -3.17652,-5.8578 -4.28493,-13.78372 -7,-20.10296 -2.10305,-6.19596 -4.61076,-11.98727 -6,-18.89704 -3.89022,8.10978 0.69996,24.69996 -4,32 -2.12009,-5.87991 -6.54036,-9.45964 -9,-15 -4.81919,-4.18081 -5.74228,-12.25772 -10,-17 -1.733,-7.60034 -5.58124,-13.08543 -9,-19 -1.46643,-7.93555 -7.2842,-11.51975 -8,-20.20593 -1.5798,-10.08686 -1.2991,-22.03423 -3,-32 -0.52419,-12.51013 -2.12726,-23.94137 -3,-36.10296 0.10819,-9.94744 -3.75208,-21.45452 -1,-30.69111 0.37585,-7.38533 8.04882,-12.10994 9,-14.89704 0.9115,6.88416 -4.15257,29.37795 1,26.89704 1.27295,-9.06039 4.17752,-16.48915 7,-24 1.87233,-8.461 4.09293,-16.57374 7,-24 1.2917,-7.46908 -7.46165,4.70707 -7,4 -7.419,5.77452 1.12265,-18.80204 0,-15 1.31363,-8.0197 1.81355,-16.85312 6,-22 3.58282,-4.08384 7.02913,-8.3042 10,-13 4.45236,-3.54764 6.29935,-9.70065 11,-13 2.35985,-5.30682 6.78379,-8.54954 9,-14 3.63263,-4.36737 6.16452,-9.83548 10,-14 2.04986,-5.67066 -15.03132,6.61165 -13,1 1.73989,-7.26011 5.30872,-12.69128 7,-20 2.4985,-6.16817 5.23163,-12.1017 7,-19 3.74772,-4.91894 4.10928,-13.22405 8,-18 1.15531,-8.17803 5.41806,-13.24861 7,-21 3.1547,-5.51197 4.4529,-12.88043 8,-18 4.609,-11.37665 0.50933,-8.22476 -8.10296,-5 -0.20059,-5.33981 5.20695,-12.77487 8.10296,-18 1.733,-7.60034 5.58124,-13.08543 9,-19 2.25788,-7.07545 5.22983,-13.43684 9,-19 2.1988,-7.13454 6.29532,-12.37135 9,-19 4.26729,-4.06604 5.63559,-11.03108 10,-15 0.90443,-7.762241 9.50137,-7.831959 14,-12 6.50213,-2.831202 13.50551,-5.161161 19,-9 6.50213,-2.831202 13.50551,-5.161161 19,-9 7.92337,-1.811935 12.37433,-7.096291 21.20593,-8 7.98237,1.948983 16.6377,3.22501 23.79407,6 9.87781,1.455521 18.62969,4.03698 27,7 8.83297,0.500362 13.37576,5.290909 21,7 5.30794,3.025392 11.95828,4.708391 16,9 4.90931,3.42402 10.6073,6.05936 13,12 5.53243,4.20288 15.37633,4.09429 23.20593,6 7.56322,2.40245 16.15535,3.77601 23.89703,6 6.8277,1.80465 14.23694,3.02776 17.89704,8 5.50703,2.15964 8.77388,6.55945 14,9 2.65754,5.00913 10.26992,5.06341 11,12 4.6126,3.72073 6.3699,10.29676 10,15 4.12096,8.77745 -13.81795,1.58473 -18.10296,7 -6.66351,2.30217 -13.13467,4.79669 -20.89704,6 -6.48526,3.21573 -15.80511,3.59687 -23.10296,6 -8.34586,1.95316 -16.20268,4.39535 -24.89704,6 -4.24894,5.0844 -8.9156,9.75106 -14,14 -0.89035,8.10965 -5.43028,12.56972 -7,20 -5.87853,5.28203 -2.80239,13.50943 -1,21 2.99618,6.33715 3.9839,14.68277 7,21 1.63252,8.36748 4.17977,15.82023 7,23 1.02866,7.97134 4.80257,13.19743 6,21 2.72217,6.27783 4.14033,13.85967 7,20 1.96234,6.03766 9.38941,6.61059 13,11 6.01608,2.98392 10.84442,7.15558 17,10 4.29981,4.70019 12.8178,5.1822 15,12 3.60901,4.39099 5.74522,10.25478 10,14 1.80707,6.19293 6.73175,9.26825 9,15 3.55787,5.10879 8.08916,9.24418 9,17 3.18943,6.47724 3.73727,15.59606 7,22 0.81164,8.52169 6.15579,12.51088 8,20 4.4236,4.24307 5.5764,11.75693 10,16 2.85572,6.81095 4.16406,15.16927 7,22 1.40309,8.59691 4.8075,15.1925 6,24 1.37342,6.74916 -10.90237,-9.66754 -9,-7 -5.25801,-3.74199 -8.74199,-9.25801 -14,-13 -2.34259,-5.65741 -7.27433,-8.72567 -10,-14 -3.96425,-3.70242 -7.28319,-8.05014 -11,-12 -1.866,-2.79769 -9.21687,-12.42498 -5,-4 4.66423,3.00243 5.69366,9.63967 10,13 1.97266,6.02734 6.75031,9.24969 9,15 3.65579,5.01087 7.30776,10.02558 13,13 4.07639,5.59028 9.92361,9.40972 14,15 5.69682,3.00416 5.08157,12.32041 8,18.10296 2.31288,6.98614 5.55477,13.04326 7,20.89704 3.09519,5.57147 4.1417,13.19163 7,19 -1.52739,6.63696 -14.2962,-6.24244 -11,-5 -3.75876,-4.3466 -9.83724,-8.4859 -4,0 2.27722,7.09044 6.15728,12.57803 8,20.10296 3.11773,7.84795 3.75112,18.18024 7,25.89704 1.57502,8.75832 3.0839,17.58277 6,25 1.01387,9.6528 4.15402,17.17932 5,27 4.86444,12.46803 -2.39897,1.5514 -5,-3 -2.11465,-6.88535 -6.63255,-11.36745 -9,-18 -4.13184,-5.2015 -5.86816,-12.7985 -10,-18 -1.94943,-7.3839 -5.42515,-13.24152 -9,-19 -1.30565,-4.94528 -9.61143,-20.51281 -5,-7.89704 2.97729,6.02271 5.34528,12.65472 8,19 2.96865,5.6637 4.79262,12.47207 8,17.89704 2.04755,6.95245 4.57314,13.42686 8,19 1.29747,7.70253 5.3383,12.6617 7,20 3.47737,5.18929 4.29354,13.03979 8,18 0.95993,8.04007 4.56824,13.43176 10,17 2.5877,6.41229 9.2912,8.70881 12,15 5.6471,3.68627 8.184,10.4827 14,14 2.7505,6.24951 9.1709,8.82911 12,15 4.9269,3.73973 7.6245,9.70883 13,13 2.0107,5.65596 7.8267,7.50665 10,13 5.6471,3.68627 8.184,10.4827 14,14 8.0329,7.76678 -7.5444,3.25253 -12,1 -10.7541,-2.84687 1.4513,6.12984 2,10 4.3116,3.02175 5.5126,9.15409 10,12 5.2894,5.54869 0.9425,9.96452 -5,12 -4.0304,3.96955 -10.4536,5.54638 -14,10 -6.3715,1.99617 -9.8649,6.87036 -16.103,9 -12.5352,-1.43047 -25.2044,-2.72687 -38.897,-3 -9.64907,-1.82155 -20.66254,-2.2787 -31.41185,-3 -9.56963,-0.29309 -11.36982,-8.35562 -17.58815,-12 -3.74199,-5.25801 -9.25801,-8.74199 -13,-14 -5.52892,-1.80441 -7.28692,-7.37974 -12,-10 -2.60068,-6.06598 -5.81615,-11.51718 -8,-18 -3.65123,5.34877 -5.65776,12.34224 -8,19 -3.27924,4.42174 -7.82143,7.58055 -10,13.10296 -2.31037,7.98865 -4.70644,15.89159 -6,24.89704 -2.91741,7.48456 -4.50564,16.29831 -6,25.20593 -2.42232,7.1757 -4.05187,15.14418 -5,23.79407 -3.50442,7.03085 5.20584,18.28437 0,24 -4.28151,8.77547 8.32567,11.52678 13,11 7.29417,-2.61691 14.08916,-4.40961 19,-2 5.08275,-4.51636 10.18753,1.41822 13,5 2.25613,2.88919 9.48566,19.68428 2,14 -3.46592,-2.26309 -10.30366,-10.95032 -14,-5.89704 -1.31135,11.1181 -22.617,6.5451 -31.83198,11.56341 C 880.44352,960.57566 881.40518,953.47715 874,951 c -1.94069,-3.6907 -11.12974,11.73521 -9,9 -6.17158,3.82842 -18.27865,1.72135 -25,5 -6.71715,-1.50061 -10.56171,-8.25261 -16,-1 -6.10538,3.82515 -16.29771,-0.46852 -24.20593,-1 -17.25705,0.8661 -2.56572,-6.8739 -13.79407,-9 -3.53237,2.11852 -17.59058,10.15229 -12,1 2.18832,-6.14501 6.13546,-10.5312 13,-12 7.59852,-0.78871 15.04264,-7.31602 20,0 6.31631,1.46118 18.40776,-0.19554 23,-4 5.30421,-3.69579 13.27885,-4.72115 18,-9 0.8523,-8.91733 6.452,-13.08726 17.30889,-12 14.24534,-0.28408 -8.68146,-4.39203 -4.30889,-9 4.90647,-4.42686 6.67309,-11.99358 8,-20 2.83048,-7.50285 4.69688,-15.96979 6,-25 3.12696,-7.20637 3.18918,-17.47748 6,-25 0.74095,-9.79846 4.10215,-20.69886 -1,-28.10296 -2.42614,-10.85015 -5.97027,-6.78023 -10,-6.89704 -3.92959,-6.07041 -0.6888,-19.3112 -5,-25 -2.89099,-5.10901 -9.10901,-6.89099 -12,-12 -5.65596,-2.0107 -7.50665,-7.82668 -13,-10 -3.33842,-4.99492 -8.89246,-7.7742 -13,-12 -5.90014,-7.3095 1.49177,17.31976 -6,5 -3.99316,-5.00684 -7.76627,-10.23373 -13,-14 -3.39113,-5.60887 -8.09006,-9.90994 -13,-14 0.31022,11.69603 -5.7592,8.21046 -10,3 -9.05519,-10.15574 -5.25657,7.85296 -6,17 -4.34435,-3.32231 -5.65565,-9.67769 -10,-13 -2.24142,-3.27643 -10.89587,-7.51634 -9,-10.89704 0.18953,9.6266 0.37803,26.01381 -8,15.89704 -6.09325,-2.57342 -10.75181,-6.58152 -17,-9 -7.36671,-6.23857 -8.74536,-4.80783 -5,5 3.7806,4.88606 4.37751,12.95583 8,18 2.24277,7.76105 5.38202,14.40255 3,24.30889 -2.52526,8.03844 -1.653,19.47441 -5,26.69111 -3.44484,5.55516 -7.55516,10.44484 -11,16 -3.52776,3.80557 -7.14769,7.51898 -9,13 -1.78626,7.54707 -5.15887,13.50779 -7,21 -2.89179,5.8092 -4.46473,12.93725 -7,19.10296 -2.50389,6.82945 -4.83679,13.82988 -7,21 -2.71099,6.74682 -5.04657,12.69254 -1,19 7.05774,5.29956 -4.45136,13.60684 4,15.89704 4.31311,5.94085 12.15478,2.77795 18,0 8.61026,-4.81974 12.73224,2.13386 20,4 3.60051,5.39949 6.65691,11.34309 8,19 z M 919,572 c -3.0712,-0.51625 0.51625,3.0712 0,0 z M 608,936 c -3.41606,4.69951 -0.15598,10.3868 0,0 z M 939,561 c -3.97264,-0.19447 1.39861,4.98202 0,0 z M 797,950 c 6.57978,-11.38452 -6.48525,5.71599 0,0 z m 81,-488 c 0.51625,-3.0712 -3.0712,0.51625 0,0 z m 0,0 c -0.51625,3.0712 3.0712,-0.51625 0,0 z m 42,112 c 0.51625,-3.0712 -3.0712,0.51625 0,0 z m 0,0 c -0.51625,3.0712 3.0712,-0.51625 0,0 z m 31,22 c -0.51625,3.0712 3.0712,-0.51625 0,0 z m -13,123 c 0.96592,-7.05571 -3.43488,-0.45667 0,0 z m 33,-31 c 3.0712,0.51625 -0.51625,-3.0712 0,0 z M 879,463 c -0.51625,3.0712 3.0712,-0.51625 0,0 z m 92,222 c -3.0712,-0.51625 0.51625,3.0712 0,0 z M 940,564 c -3.0712,-0.51625 0.51625,3.0712 0,0 z m 30,119 c -3.0712,-0.51625 0.51625,3.0712 0,0 z M 673,938 c 3.0712,0.51625 -0.51625,-3.0712 0,0 z m 1,1 c 3.0712,0.51625 -0.51625,-3.0712 0,0 z" fill="#050507" fill-rule="evenodd"/>
</svg>
