<?xml version="1.0" encoding="UTF-8" standalone="no"?>
<svg
   viewBox="358.40911 68 502.8569 502.8569"
   width="573.6875"
   height="573.6875"
   version="1.1"
   id="svg1"
   sodipodi:docname="rook-head.svg"
   inkscape:version="1.4.2 (ebf0e940, 2025-05-08)"
   xmlns:inkscape="http://www.inkscape.org/namespaces/inkscape"
   xmlns:sodipodi="http://sodipodi.sourceforge.net/DTD/sodipodi-0.dtd"
   xmlns="http://www.w3.org/2000/svg"
   xmlns:svg="http://www.w3.org/2000/svg">
  <defs
     id="defs1" />
  <sodipodi:namedview
     id="namedview1"
     pagecolor="#ffffff"
     bordercolor="#000000"
     borderopacity="0.25"
     inkscape:showpageshadow="2"
     inkscape:pageopacity="0.0"
     inkscape:pagecheckerboard="0"
     inkscape:deskcolor="#d1d1d1"
     inkscape:zoom="0.3807336"
     inkscape:cx="164.15677"
     inkscape:cy="-9.1927793"
     inkscape:window-width="1728"
     inkscape:window-height="1056"
     inkscape:window-x="0"
     inkscape:window-y="33"
     inkscape:window-maximized="1"
     inkscape:current-layer="svg1" />
  <path
     id="path2-6"
     style="fill:#000000;fill-opacity:1;stroke:none;stroke-width:17.5307;stroke-linejoin:round;stroke-dasharray:none;stroke-opacity:1"
     d="m 609.83927,68 c -138.70432,0 -251.43016,112.72585 -251.43016,251.43016 0,138.70431 112.72584,251.42673 251.43016,251.42673 138.70431,0 251.42674,-112.72242 251.42674,-251.42673 C 861.26601,180.72585 748.54358,68 609.83927,68 Z m 0,26.29603 c 124.49287,0 225.1307,100.64125 225.1307,225.13413 0,51.22993 -17.04329,98.41878 -45.77667,136.21894 -0.5677,-1.48543 -0.99588,-3.109 -1.17442,-4.98358 -2.8599,-5.61328 -3.3401,-13.60624 -6.13574,-19.28376 -0.79839,-6.79824 -4.77022,-10.42306 -7.88881,-14.90109 -1.9882,-5.02407 -6.30486,-7.7197 -7.88881,-13.14801 -3.72947,-3.28282 -5.60193,-8.42263 -8.76535,-12.27149 -1.91277,-5.97604 -9.37909,-6.39853 -13.14802,-10.51841 -5.39558,-2.49323 -9.62778,-6.14984 -14.90108,-8.76535 -3.16481,-3.84747 -9.67489,-4.34966 -11.39495,-9.64188 -2.5066,-5.38221 -3.74966,-12.02795 -6.13574,-17.53069 -1.04958,-6.83922 -4.35756,-11.42007 -5.25921,-18.40722 -2.47204,-6.29332 -4.70479,-12.8259 -6.13575,-20.16029 -2.64372,-5.53727 -3.50948,-12.8525 -6.13574,-18.40723 -1.57985,-6.56574 -4.2762,-13.77733 0.87654,-18.40722 1.37591,-6.51289 5.35532,-10.4223 6.13574,-17.53069 4.45665,-3.72434 8.54714,-7.81484 12.27148,-12.27149 7.62091,-1.40653 14.5089,-3.5472 21.82434,-5.25921 6.39682,-2.10642 14.56477,-2.44051 20.24932,-5.2592 6.80399,-1.05475 12.4774,-3.24128 18.3182,-5.25921 3.75596,-4.74667 19.47881,1.55799 15.86665,-6.13574 -3.18191,-4.12256 -4.72224,-9.88667 -8.76535,-13.14802 -0.63994,-6.08016 -7.31245,-6.12773 -9.64188,-10.51841 -4.58087,-2.13922 -7.44438,-5.99581 -12.27148,-7.88881 -3.20821,-4.35834 -9.70218,-5.43044 -15.68689,-7.01228 -6.78585,-1.94941 -14.31666,-3.15338 -20.94609,-5.25921 -6.86291,-1.67042 -15.4924,-1.57523 -20.34177,-5.2592 -2.09729,-5.20717 -7.09177,-7.51715 -11.39495,-10.51842 -3.54271,-3.76174 -9.37195,-5.23695 -14.02455,-7.88881 -6.68291,-1.49808 -10.66482,-5.69716 -18.40722,-6.13574 -7.33687,-2.59719 -15.0082,-4.85992 -23.66644,-6.13574 -6.27281,-2.43237 -13.85852,-3.55086 -20.85535,-5.25921 -7.7412,0.79213 -11.64359,5.42406 -18.5887,7.01228 -4.81611,3.36488 -10.95481,5.40717 -16.65415,7.88881 -4.81611,3.36488 -10.95482,5.40716 -16.65416,7.88881 -3.9432,3.65343 -11.47872,3.71454 -12.27148,10.51841 -3.82556,3.4789 -5.02492,9.58399 -8.76535,13.14802 -2.37074,5.81024 -5.96148,10.40049 -7.88881,16.65416 -3.30468,4.87631 -5.9097,10.45227 -7.88881,16.65415 -2.99666,5.18432 -6.36977,9.9922 -7.88881,16.65416 -2.53845,4.58 -7.27713,11.09709 -7.1013,15.77762 7.54897,-2.82662 11.14125,-5.58936 7.1013,4.38267 -3.10915,4.48748 -4.24708,10.94619 -7.01228,15.77762 -1.38663,6.79436 -5.12307,11.2389 -6.13574,18.40723 -3.41035,4.18628 -3.72727,11.466 -7.01227,15.77762 -1.55004,6.0466 -3.94572,11.24755 -6.13574,16.65416 -1.48247,6.40635 -4.61067,11.16696 -6.13575,17.53069 -1.78052,4.91881 13.19173,-5.84707 11.39495,-0.87654 -3.36193,3.65034 -5.58122,8.44333 -8.76534,12.27148 -1.94259,4.77752 -5.82032,7.61987 -7.88881,12.27149 -4.12028,2.89199 -5.73924,8.28533 -9.64188,11.39495 -2.60407,4.11604 -5.62488,7.81533 -8.76535,11.39495 -3.62644,4.45839 -4.09624,12.07256 -5.21812,19.03552 0.0231,-0.0588 0.0391,-0.0942 0.0462,-0.10272 h 0.002 0.002 v 0.002 0.002 c 4.4e-4,0.0232 -0.0279,0.13456 -0.0907,0.34753 0.0135,-0.0826 0.0277,-0.16542 0.0411,-0.24823 -0.57692,1.46702 -5.80528,17.88277 -0.0411,13.39625 -0.40466,0.61977 7.26796,-10.05304 6.13574,-3.50614 -2.54815,6.50938 -4.49458,13.62047 -6.13574,21.03683 -2.47401,6.58352 -5.01996,13.09508 -6.13575,21.03683 -4.5164,2.1746 -0.0776,-17.5415 -0.87653,-23.5757 -0.83374,2.44298 -7.55937,6.5838 -7.88881,13.05729 -2.41229,8.09619 0.97133,18.1828 0.87653,26.90207 0.0609,0.84875 0.1252,1.69402 0.19346,2.53545 -35.6312,-39.81522 -57.27606,-92.41949 -57.27606,-150.15447 0,-124.49288 100.64125,-225.13413 225.13413,-225.13413 z m 76.46051,73.7573 c 3.99219,0.0942 8.09797,1.85323 12.31257,2.99768 3.81457,4.36641 11.62406,4.73794 17.5307,7.01228 7.74346,1.02188 14.80316,2.72752 21.03683,5.2592 7.27303,1.20013 13.8723,3.07402 19.28376,6.13574 2.89199,4.12028 8.28532,5.73923 11.39494,9.64188 5.12589,1.59422 6.8871,6.55311 10.51842,9.64188 6.26463,7.8126 -0.30513,5.38701 -8.67461,4.38268 -7.71871,-1.80283 -18.5787,-0.46417 -25.93481,-2.62961 -9.8817,-0.20278 -18.92317,-1.24649 -27.62453,-2.6296 -14.57999,-0.8476 -25.07392,2.39083 -38.56752,2.6296 -7.44643,3.79506 -15.48405,-3.72512 -20.1603,1.75307 -3.07933,1.88432 -16.47855,5.54976 -5.34823,4.38267 6.89143,-4.07398 14.03118,1.06123 19.97883,0 8.99151,-1.0328 18.97115,-1.0772 27.44306,-2.6296 15.83399,-0.4087 29.94853,0.90276 44.5235,1.75307 4.06532,1.15969 25.93647,1.60723 13.41852,3.50614 -6.566,1.87708 -14.77823,2.10746 -20.9461,4.38267 -9.28963,1.25888 -17.82837,3.2691 -27.2633,4.38267 -7.4869,1.83273 -16.3325,2.30627 -23.5757,4.38268 -14.45104,1.53755 -8.78912,2.82033 -1.93454,5.2592 -6.26732,1.62149 -11.765,4.01262 -16.65416,7.01228 -6.04659,0.34282 -11.24754,6.9631 -16.65415,2.6296 -6.77673,-1.40426 -11.64825,-4.71372 -18.40723,-6.13574 -8.38607,-2.05747 -0.73038,-10.90439 -0.87653,-17.53069 4.99792,-4.50356 0.47995,-13.05072 0,-15.77762 3.54371,-2.39173 9.36101,-3.05818 12.27148,-6.13574 4.7246,-1.99551 6.77932,-6.66089 11.39495,-8.76535 8.43544,0.57672 7.26858,-8.44839 9.64188,-13.93381 2.16457,-5.72425 10.56731,-5.21203 14.81206,-8.85609 2.31077,-1.63565 4.6649,-2.17769 7.06021,-2.12114 z m -58.57373,4.09848 c 5.95103,-0.16763 12.87721,1.29088 13.91156,5.91148 2.62661,-0.79641 0.003,4.30254 2.6296,3.50613 4.09507,5.66303 -2.06361,7.46187 -4.38267,11.39495 -3.78228,3.92756 -16.08854,3.34907 -19.28376,-0.87653 -3.93512,-1.90845 -5.03319,-6.65394 -8.76534,-8.76535 3.13965,-3.87263 6.64579,-7.37876 10.51841,-10.51841 1.51236,-0.36061 3.38852,-0.59639 5.3722,-0.65227 z m 83.09102,12.5163 c -2.44622,-0.0113 -9.70201,2.31116 -11.83835,3.65166 -2.58652,2.01803 -10.6222,8.44966 -6.50211,7.27421 h 4.38268 c 6.73383,-1.15498 12.86433,-2.91328 14.02455,-9.64188 1.1108,-0.91779 0.89045,-1.27955 -0.0668,-1.28399 z m -11.83835,3.65166 c 0.29317,-0.22874 0.51616,-0.40037 0.6437,-0.49819 -0.1332,0.10117 -0.38069,0.28798 -0.76525,0.57694 0.0385,-0.0259 0.0789,-0.052 0.12155,-0.0788 z m 14.53472,193.09952 c 6.23118,0.10299 13.74905,-0.77494 16.65416,2.62961 12.95015,3.46138 5.74389,5.54521 -7.01228,4.38267 -5.43458,3.91511 -17.22657,1.47282 -21.91336,6.13574 -2.80779,5.66538 -3.14976,13.79657 -6.13574,19.28376 -0.7926,8.26492 -4.02189,14.09317 -4.38268,22.7899 -2.34427,-8.22383 -2.5231,-23.16943 -0.87653,-32.43178 1.70373,-5.60072 5.53647,-9.07245 7.88881,-14.02455 2.03546,-6.14554 7.5649,-8.79705 15.77762,-8.76535 z m 57.7109,94.33018 c 0.099,-8.2e-4 0.26113,0.10189 0.46908,0.28248 -0.14852,0.15348 -0.29787,0.30747 -0.44682,0.46052 -0.17752,-0.51921 -0.16694,-0.7418 -0.0223,-0.743 z m -30.00248,0.98782 c 0.27325,-0.0108 0.4821,0.25955 0.34069,1.1008 2.69201,-0.45251 -0.45251,2.69201 0,0 -1.85076,0.3111 -0.94183,-1.07703 -0.34069,-1.1008 z m 1.6572,1.93282 c 1.87435,-0.0372 -0.8642,2.56828 -0.43998,0.0445 0.16825,-0.0283 0.31503,-0.042 0.43998,-0.0445 z m 0.43656,1.79758 c 4.47822,2.53406 6.04019,7.98436 10.51841,10.51842 0.19236,0.3794 0.39789,0.74575 0.6146,1.1008 -0.65599,0.54977 -1.31499,1.09599 -1.97734,1.63837 -2.91608,-4.55486 -6.12473,-8.81759 -9.15567,-13.25759 z m -28.35213,14.79666 h 0.002 0.002 c 0.0223,-0.002 0.1178,0.0316 0.29959,0.10443 0.0954,0.0881 0.18983,0.17796 0.28248,0.26878 1.68548,1.00043 6.49127,3.86113 7.60633,6.7435 2.79751,2.04583 5.09391,4.59234 7.22285,7.30673 -1.43335,0.90899 -2.87788,1.80203 -4.33302,2.67926 -0.72047,-1.23429 -1.40481,-2.50398 -2.01329,-3.85025 -3.33088,-3.79011 -4.88696,-9.35416 -8.48287,-12.87924 -0.34285,-0.2035 -0.55824,-0.33233 -0.5855,-0.36636 v -0.002 -0.002 -0.002 z" />
</svg>
