<?xml version="1.0" encoding="UTF-8" standalone="no"?>
<svg
   viewBox="295 0 1028 720"
   width="1028"
   height="720"
   role="img"
   aria-label="Rook logo on bright purple gradient background"
   version="1.1"
   id="svg7"
   sodipodi:docname="rook-logo-gradient-wide.svg"
   inkscape:version="1.4.4 (dcaf3e7, 2026-05-05)"
   inkscape:export-filename="rook-logo-gradient-wide.png"
   inkscape:export-xdpi="96"
   inkscape:export-ydpi="96"
   xmlns:inkscape="http://www.inkscape.org/namespaces/inkscape"
   xmlns:sodipodi="http://sodipodi.sourceforge.net/DTD/sodipodi-0.dtd"
   xmlns="http://www.w3.org/2000/svg"
   xmlns:svg="http://www.w3.org/2000/svg">
  <sodipodi:namedview
     id="namedview7"
     pagecolor="#ffffff"
     bordercolor="#000000"
     borderopacity="0.25"
     inkscape:showpageshadow="2"
     inkscape:pageopacity="0.0"
     inkscape:pagecheckerboard="0"
     inkscape:deskcolor="#d1d1d1"
     inkscape:zoom="0.5507151"
     inkscape:cx="746.3024"
     inkscape:cy="295.0709"
     inkscape:window-width="1728"
     inkscape:window-height="1056"
     inkscape:window-x="1010"
     inkscape:window-y="1633"
     inkscape:window-maximized="1"
     inkscape:current-layer="g10" />
  <defs
     id="defs6">
    <rect
       x="-512.0615"
       y="-188.84538"
       width="334.11105"
       height="372.24329"
       id="rect10" />
    <rect
       x="-581.0627"
       y="-94.422688"
       width="535.66717"
       height="306.87374"
       id="rect9" />
    <rect
       x="-497.53493"
       y="39.94806"
       width="21.789851"
       height="150.71314"
       id="rect8" />
    <rect
       x="-488.45583"
       y="38.132239"
       width="477.5609"
       height="286.89971"
       id="rect7" />
    <linearGradient
       id="bg"
       x1="295"
       y1="0"
       x2="295"
       y2="1024"
       gradientUnits="userSpaceOnUse"
       gradientTransform="translate(-1.11285e-6)">
      <stop
         offset="0%"
         stop-color="#8b5cf6"
         id="stop1" />
      <stop
         offset="38%"
         stop-color="#7c3aed"
         id="stop2" />
      <stop
         offset="100%"
         stop-color="#2f263b"
         id="stop3" />
    </linearGradient>
    <radialGradient
       id="glow"
       cx="807"
       cy="286.72"
       r="737.28003"
       fx="807"
       fy="286.72"
       gradientUnits="userSpaceOnUse">
      <stop
         offset="0%"
         stop-color="#c4b5fd"
         stop-opacity="0.45"
         id="stop4" />
      <stop
         offset="40%"
         stop-color="#a78bfa"
         stop-opacity="0.22"
         id="stop5" />
      <stop
         offset="100%"
         stop-color="#a78bfa"
         stop-opacity="0"
         id="stop6" />
    </radialGradient>
    <rect
       x="-512.06152"
       y="-188.84538"
       width="334.11105"
       height="372.24329"
       id="rect10-5" />
    <rect
       x="-512.06152"
       y="-188.84538"
       width="334.11105"
       height="372.24329"
       id="rect10-5-5" />
    <linearGradient
       id="bg-8"
       x1="295"
       y1="-1.8160548"
       x2="293.1842"
       y2="835.15454"
       gradientUnits="userSpaceOnUse"
       gradientTransform="translate(27.348019,-954.01349)">
      <stop
         offset="0%"
         stop-color="#8b5cf6"
         id="stop1-7" />
      <stop
         offset="0.24402437"
         stop-color="#7c3aed"
         id="stop2-6" />
      <stop
         offset="100%"
         stop-color="#2f263b"
         id="stop3-0" />
    </linearGradient>
    <rect
       x="-512.06152"
       y="-188.84538"
       width="334.11105"
       height="372.24329"
       id="rect10-0" />
    <rect
       x="-512.06152"
       y="-188.84538"
       width="334.11105"
       height="372.24329"
       id="rect10-5-9" />
    <rect
       x="-512.06152"
       y="-188.84538"
       width="254.69091"
       height="57.301337"
       id="rect10-5-5-5" />
  </defs>
  <g
     id="g10"
     transform="translate(-27.348022,954.01349)">
    <text
       xml:space="preserve"
       transform="translate(295)"
       id="text8"
       style="font-size:21.3333px;line-height:0px;font-family:Serif;-inkscape-font-specification:Serif;writing-mode:lr-tb;direction:ltr;white-space:pre;shape-inside:url(#rect8);display:inline;fill:#ffffff;stroke-width:30;stroke-linejoin:round" />
    <text
       xml:space="preserve"
       transform="translate(295)"
       id="text9"
       style="font-size:21.3333px;line-height:0px;font-family:Serif;-inkscape-font-specification:Serif;writing-mode:lr-tb;direction:ltr;white-space:pre;shape-inside:url(#rect9);display:inline;fill:#ffffff;stroke-width:30;stroke-linejoin:round" />
    <rect
       x="321"
       y="-954"
       width="1030.696"
       height="719.97302"
       fill="url(#bg)"
       id="rect6-2"
       style="fill:url(#bg-8);stroke-width:1" />
    <path
       d="m 887.12417,-792.97222 c 0.31948,1.81513 3.32681,7.50447 0,10.50221 0.0973,4.41073 -4.99865,10.29959 0.58346,11.66912 4.49904,0.94655 7.74171,3.14946 12.25257,4.08419 3.59885,2.88455 7.06081,-1.52217 11.08566,-1.75037 3.25441,-1.99669 6.91389,-3.58831 11.08567,-4.66764 -4.56269,-1.62341 -8.33213,-2.47729 1.28705,-3.50074 4.82136,-1.38214 10.70967,-1.69734 15.69324,-2.91728 6.28026,-0.74123 11.96367,-2.07932 18.14724,-2.91728 4.10553,-1.51447 9.57223,-1.66782 13.94281,-2.91728 8.33243,-1.26398 -6.22601,-1.56188 -8.93202,-2.33382 -9.70168,-0.566 -19.09639,-1.43896 -29.63612,-1.16692 -5.63924,1.03335 -12.28225,1.0629 -18.26735,1.75038 -3.959,0.70639 -8.71213,-2.71181 -13.29934,0 -7.40878,0.77685 1.51108,-1.66301 3.56081,-2.91728 3.11269,-3.6465 8.46285,1.35923 13.41949,-1.16692 8.98187,-0.15893 15.96704,-2.31456 25.67206,-1.75037 5.79196,0.92066 11.80987,1.61539 18.38747,1.75037 4.89653,1.4414 12.12556,0.55033 17.26337,1.75037 5.57102,0.66852 9.94451,2.28309 5.77449,-2.91728 -2.41714,-2.05601 -3.58945,-5.35684 -7.00148,-6.41801 -2.06986,-2.59776 -5.65987,-3.6754 -7.58492,-6.41802 -3.60206,-2.038 -7.9948,-3.28533 -12.83597,-4.08419 -4.14943,-1.68518 -8.84861,-2.82054 -14.00296,-3.50074 -3.9317,-1.51389 -9.12999,-1.76119 -11.66913,-4.66764 -4.48863,-1.21887 -8.7944,-3.48681 -12.8961,-0.58346 -2.82547,2.42563 -8.41786,2.08435 -9.85867,5.89463 -1.57977,3.65132 -0.80306,9.65911 -6.41802,9.27523 -3.07234,1.40081 -4.44004,4.50627 -7.58493,5.83455 -1.93732,2.04855 -5.80955,2.49216 -8.16838,4.08419 z M 998.56425,-511.163 c 2.59525,2.46138 3.47675,6.63652 5.83455,9.33529 1.3982,3.853 3.7914,6.71081 5.2511,10.50221 1.3842,2.90292 5.9202,9.45191 2.3338,2.91728 -0.9092,-4.53628 -3.517,-7.37413 -4.6676,-11.66912 -2.0379,-3.21312 -3.0403,-7.46194 -5.2511,-10.5022 -1.0455,-4.40011 -3.66125,-7.22997 -4.66765,-11.66912 -1.3746,-2.9041 -3.2834,-5.27399 -5.8346,-7.00148 -1.7006,-2.18918 -3.6454,-4.13403 -5.83456,-5.83455 1.65256,3.40403 4.04306,6.07017 5.25116,9.91874 2.5041,2.55247 3.1886,6.92456 5.8345,9.3353 0.1431,1.98338 1.6098,2.69005 1.7504,4.66765 z m -68.26434,182.6217 c -2.38591,0.91555 -1.91769,4.78734 0,0 z m 0,0 c 5.89268,-2.55493 5.65252,2.11184 9.91875,-1.75036 -1.69047,-2.31788 -10.0013,-1.3019 -9.91875,1.75036 z m 47.25988,-261.38825 c 2.06372,2.60397 4.83719,4.49809 5.25111,8.75183 2.30313,3.14247 3.69285,7.19837 5.25115,11.08567 2.3631,2.88794 3.3311,7.17105 5.2511,10.5022 2.5403,2.08401 -3.6539,-9.63279 -2.3338,-8.16838 -0.6223,-4.64896 -3.0102,-7.53213 -4.08425,-11.72919 -1.40881,-3.43331 -2.924,-6.76022 -5.25111,-9.27522 -1.40823,-3.45385 -4.37746,-5.34681 -6.418,-8.16838 -1.96804,-2.69962 -4.84765,-4.48761 -6.41803,-7.58493 -2.98085,-1.68676 -4.02055,-5.3147 -7.0014,-7.00147 2.13035,3.12074 4.3924,6.10981 6.41794,9.33529 2.42113,2.24659 3.46257,5.87274 6.41803,7.58493 0.41566,2.02898 2.17389,2.8816 2.91726,4.66765 z m 38.50811,109.10626 c -1.7918,-0.30122 0.3013,1.79191 0,0 z m -59.51246,-98.60406 c 2.53474,1.93842 3.29984,5.64651 5.83457,7.58493 1.40118,3.26649 3.46697,5.86827 5.25112,8.75184 3.83591,1.41516 4.94026,5.56191 8.75175,7.00148 1.95824,2.90395 5.04656,4.67774 7.58494,7.00146 -1.35462,-3.31297 -4.44493,-4.89032 -5.83457,-8.16838 -2.48268,-2.18489 -4.37387,-4.96135 -6.41801,-7.58492 -2.03492,-2.63266 -4.57347,-4.76176 -5.83448,-8.16839 -2.57548,-2.09223 -3.42855,-5.90675 -5.83457,-8.16839 -1.5201,-3.14754 -3.89392,-5.44143 -5.25112,-8.75183 -1.89219,-2.58098 -3.83434,-5.112 -6.41803,-7.00147 -1.01064,-2.61245 -6.57655,-5.19868 -5.2511,-4.66765 2.52873,2.33339 3.56027,6.164 5.83455,8.75184 1.51352,3.34862 3.73759,5.98667 5.25113,9.33529 0.88427,0.96236 1.92795,2.61167 2.33382,4.08419 z m -2.91728,132.4445 c -1.22011,-4.03102 -4.1188,-6.38342 -5.25112,-10.50221 -0.64504,3.07851 2.29593,7.41101 2.91729,11.14574 1.29936,3.93173 2.93081,7.53135 4.0842,11.60904 2.04563,3.52627 2.46245,13.0321 3.50074,3.44067 1.40782,-5.89006 -1.21944,-9.10227 -3.50074,-12.77596 -0.10539,-1.28372 -1.05688,-2.20711 -1.75037,-2.91728 z m -59.51252,-365.82687 c -0.91801,-4.10087 -8.80928,-4.46087 -12.83603,-3.50073 -2.57777,2.08987 -4.9116,4.42369 -7.00147,7.00147 2.48427,1.40543 3.21519,4.56422 5.83456,5.83456 2.12686,2.81273 10.31839,3.19779 12.83603,0.58345 1.54365,-2.61801 5.64312,-3.81539 2.91728,-7.58493 -1.74859,0.53013 -0.002,-2.86394 -1.75037,-2.33382 z m 47.84339,135.36178 c -5.46672,-0.0212 -9.14733,1.74385 -10.50221,5.83456 -1.56581,3.29631 -4.11703,5.60723 -5.2511,9.3353 -1.09602,6.16538 -0.97698,16.11376 0.58345,21.58786 0.24016,-5.78888 2.3897,-9.66839 2.91728,-15.16985 1.98759,-3.65249 2.21521,-9.06494 4.08419,-12.83603 3.11971,-3.10383 10.96893,-1.47814 14.5864,-4.08419 8.49104,0.77383 13.28782,-0.61325 4.66766,-2.91728 -1.93376,-2.26621 -6.93796,-1.68182 -11.08567,-1.75037 z M 927.96608,-801.1406 c -3.78195,1.07899 7.82223,-7.47153 4.08419,-4.66765 1.3448,-1.15609 10.92755,-4.03009 8.16839,-1.75036 -0.77228,4.47881 -4.853,5.64921 -9.33529,6.41801 z m -93.9364,463.84746 c -3.85193,5.09771 1.29573,-1.69543 3.50074,0 2.01052,1.26941 11.06367,-1.02533 5.83455,-2.33382 -2.87243,1.06251 -8.42584,-0.70306 -9.33529,2.33382 z m 160.45037,-219.37942 c 2.1368,0.0364 -0.7001,-4.28401 0,0 z m 0,93.35295 c 0.1231,7.51363 -1.6696,13.11128 -1.7504,20.42095 -1.4461,5.33195 -0.6941,13.82489 1.7504,5.25111 0.8948,-4.60951 4.0911,-7.93807 2.3338,-13.53964 -1.1285,-3.6412 0.037,-9.78234 -2.3338,-12.13242 z m 1.1669,-93.35295 c -2.3179,-0.11346 0.816,2.90679 0,0 z m -48.42682,98.02059 c -0.30121,1.79191 1.79191,-0.30121 0,0 z m -67.16516,127.98781 c -1.55104,-1.88444 -5.88501,-5.83573 -7.5172,-3.65162 -0.43438,0.61766 -3.87414,2.11525 -5.25651,1.73973 l -8.74643,1.11748 c -2.57072,2.7004 -7.05951,3.48274 -11.14574,4.66764 -6.78747,4.19146 -6.41033,-5.52041 -9.85867,-4.66764 -1.99429,2.28438 -3.51474,5.04261 -7.58494,5.2511 3.27371,-7.49538 -5.14012,-2.83818 -8.81191,-2.33383 -5.19166,1.95095 -10.6303,0.45899 -16.45691,0 -7.10322,-0.25813 -8.33154,-3.07451 -11.43778,-4.1459 -2.85313,-6.48815 5.38096,-4.35558 7.53381,-6.93976 7.48797,-0.34585 7.69153,4.58272 16.05368,2.33382 2.25064,1.21177 3.72463,-2.78499 7.86802,-4.08419 4.90773,-0.53785 4.17915,-6.71203 6.41801,-9.91875 11.38995,0.32097 1.62582,-1.22709 4.66765,-3.50074 2.44084,-2.03231 4.55,-4.39632 5.83456,-7.58492 0.86095,-4.41018 2.95668,-7.58558 4.08419,-11.72919 1.34974,-3.88134 3.3263,-7.13585 4.08419,-11.60904 1.84308,-3.01905 2.1404,-7.58387 4.08419,-10.50221 0.2069,-4.71246 4.0106,-8.1773 2.33382,-12.89611 -1.46842,-3.46982 -1.69702,-9.0915 -4.66765,-6.35794 -3.2382,-5.70812 1.14368,-19.03633 -2.91727,-23.92169 -1.25804,-6.95102 -3.96676,-8.46689 -2.91728,1.58743 -1.87263,0.3543 -3.32664,-6.46905 -4.66765,-9.17236 -1.71433,-3.53677 -3.29992,-7.20229 -4.66765,-11.08566 -1.71433,-3.53677 -3.29992,-7.20229 -4.66764,-11.08567 -1.78539,-1.24663 -4.60006,-13.38591 -4.66765,-5.07088 0.53581,4.63464 0.46574,11.34136 -1.75037,4.48743 -2.4224,-2.63422 -3.59711,-6.51613 -5.83456,-9.3353 -1.42274,-4.02284 -4.06717,-6.824 -5.2511,-11.08566 -2.64341,-2.60769 -3.4678,-7.0344 -5.83457,-9.91875 -1.63588,-3.63524 -3.7678,-6.77446 -4.66764,-11.14573 -1.32442,-3.92668 -2.82804,-7.67418 -4.08419,-11.66912 -1.3454,-4.08017 -3.00609,-7.84505 -4.0842,-12.1925 -1.85335,-3.41777 -2.50006,-8.0422 -4.08419,-11.7292 -1.22703,-3.61507 -2.69016,-6.99404 -3.50073,-11.02559 -2.26977,4.7317 0.40839,14.41134 -2.33382,18.6706 -1.23698,-3.43067 -3.81601,-5.51929 -5.25111,-8.75184 -2.81178,-2.43933 -3.35036,-7.15184 -5.83456,-9.91876 -1.01113,-4.43446 -3.2564,-7.63477 -5.2511,-11.08566 -0.8556,-4.63004 -4.25,-6.72126 -4.66764,-11.78927 -0.92175,-5.88523 -0.75798,-12.856 -1.75038,-18.67059 -0.30584,-7.29911 -1.24115,-13.96874 -1.75036,-21.06448 0.0631,-5.8039 -2.18918,-12.51777 -0.58346,-17.90691 0.2193,-4.30902 4.69613,-7.06562 5.2511,-8.69177 0.53183,4.0166 -2.42283,17.14074 0.58346,15.69324 0.74271,-5.28635 2.4374,-9.6207 4.08419,-14.00294 1.09243,-4.93662 2.38805,-9.67005 4.08419,-14.00295 0.75366,-4.35788 -4.35354,2.74637 -4.08419,2.33382 -4.32865,3.36918 0.65502,-10.97016 0,-8.75184 0.76645,-4.67914 1.05813,-9.83304 3.50074,-12.83603 2.09042,-2.38273 4.10119,-4.84513 5.83456,-7.58492 2.59775,-2.06989 3.67539,-5.6599 6.41802,-7.58493 1.37686,-3.09629 3.95804,-4.98828 5.25109,-8.16838 2.11948,-2.54817 3.59673,-5.73857 5.83457,-8.16838 1.196,-3.30859 -8.77012,3.8576 -7.58493,0.58346 1.01515,-4.23596 3.0974,-7.40481 4.08419,-11.66913 1.45776,-3.59885 3.05243,-7.06081 4.08419,-11.08566 2.18663,-2.86998 2.39759,-7.71565 4.66765,-10.50221 0.67408,-4.77152 3.1612,-7.72998 4.08419,-12.25257 1.84063,-3.216 2.59807,-7.51516 4.66765,-10.5022 2.68915,-6.63778 0.29717,-4.79879 -4.72772,-2.91729 -0.11704,-3.11554 3.03803,-7.45357 4.72772,-10.5022 1.01113,-4.43447 3.25641,-7.63478 5.25111,-11.08566 1.31737,-4.12822 3.05137,-7.83981 5.25109,-11.08567 1.28291,-4.16268 3.67304,-7.21814 5.25111,-11.08566 2.48978,-2.37236 3.28812,-6.43615 5.83456,-8.75184 0.52769,-4.52892 5.54363,-4.5696 8.16838,-7.00147 3.79371,-1.65188 7.87987,-3.01131 11.08566,-5.2511 3.79371,-1.65189 7.87988,-3.01132 11.08567,-5.25111 4.62294,-1.05718 7.21987,-4.14037 12.37272,-4.66764 4.65736,1.13714 9.70737,1.88165 13.88279,3.50073 5.76327,0.84924 10.8696,2.3554 15.75332,4.08419 5.15364,0.29194 7.80416,3.08701 12.25257,4.08419 3.09694,1.76519 6.97713,2.74715 9.33529,5.25111 2.86437,1.99776 6.18889,3.53537 7.58493,7.00146 3.22793,2.4522 8.97141,2.38884 13.53964,3.50075 4.41282,1.40172 9.42594,2.20313 13.9429,3.50073 3.98362,1.05293 8.30656,1.76656 10.44206,4.66765 3.21312,1.26005 5.11915,3.82715 8.16838,5.2511 1.55054,2.92261 5.99207,2.95428 6.41802,7.00147 2.69125,2.17089 3.71655,6.00771 5.83455,8.75184 2.4044,5.12126 -8.06216,0.92462 -10.56228,4.08419 -3.88786,1.34322 -7.66342,2.79866 -12.19241,3.50074 -3.78389,1.87623 -9.22163,2.09861 -13.4796,3.50073 -4.86947,1.13958 -9.45356,2.5645 -14.52633,3.50074 -2.47907,2.96652 -5.20187,5.68931 -8.16839,8.16838 -0.51947,4.73163 -3.16832,7.33388 -4.08419,11.66912 -3.42986,3.08183 -1.63507,7.88216 -0.58346,12.25258 1.74814,3.69744 2.32444,8.56674 4.0842,12.25257 0.9525,4.88205 2.43871,9.23041 4.08419,13.41949 0.60018,4.65092 2.80208,7.70011 3.50073,12.25257 1.58827,3.66284 2.4157,8.0865 4.08419,11.66912 1.14494,3.52271 5.47832,3.85699 7.58494,6.41802 3.51012,1.74098 6.32725,4.17496 9.91877,5.83455 2.50876,2.74236 7.47856,3.02359 8.75178,7.00148 2.1057,2.56194 3.35212,5.98321 5.83454,8.16838 1.05439,3.6133 3.9277,5.40761 5.25112,8.75184 2.07583,2.98075 4.71968,5.39357 5.2511,9.91874 1.8609,3.77919 2.1806,9.09962 4.0842,12.83604 0.4735,4.97203 3.5916,7.29954 4.6677,11.66912 2.5809,2.47564 3.2535,6.85965 5.83455,9.33529 1.6662,3.97389 2.4295,8.8506 4.0842,12.83603 0.8187,5.01592 2.805,8.86416 3.5007,14.00294 0.8014,3.93784 -6.361,-5.64058 -5.2511,-4.08419 -3.0678,-2.18329 -5.10055,-5.40164 -8.16835,-7.58492 -1.3669,-3.30085 -4.2443,-5.09105 -5.8346,-8.16839 -2.313,-2.1602 -4.24942,-4.6969 -6.41803,-7.00147 -1.08875,-1.63233 -5.37767,-7.24942 -2.91729,-2.33382 2.72136,1.75178 3.322,5.62432 5.83457,7.58492 1.15095,3.5167 3.93845,5.39679 5.25115,8.75184 2.133,2.92363 4.2637,5.84949 7.5849,7.58493 2.37845,3.26168 5.78995,5.49015 8.16835,8.75184 3.3239,1.75279 2.9649,7.18842 4.6677,10.56228 1.3495,4.0761 3.241,7.61017 4.0842,12.1925 1.8059,3.25071 2.4165,7.69674 4.0842,11.08566 -0.8912,3.87238 -8.3412,-3.64219 -6.418,-2.91728 -2.1931,-2.53605 -5.7396,-4.95115 -2.3339,0 1.3287,4.13696 3.5925,7.33873 4.6677,11.72919 1.8191,4.57894 2.1886,10.60737 4.0842,15.10979 0.9189,5.11009 1.7993,10.25877 3.5007,14.58639 0.5916,5.63199 2.4237,10.02338 2.9173,15.75331 2.8382,7.27455 -1.3997,0.90518 -2.9173,-1.75036 -1.2338,-4.0173 -3.8697,-6.63241 -5.2511,-10.50221 -2.4107,-3.03484 -3.4238,-7.46736 -5.8346,-10.50221 -1.1373,-4.30818 -3.1653,-7.72584 -5.2511,-11.08566 -0.7618,-2.88536 -5.6078,-11.96832 -2.9173,-4.60757 1.7372,3.51398 3.1188,7.38346 4.6677,11.08566 1.7321,3.30452 2.7963,7.2769 4.6677,10.44213 1.1947,4.05645 2.6682,7.83398 4.6676,11.08567 0.7571,4.49408 3.1147,7.38754 4.0842,11.66911 2.0289,3.02772 2.5051,7.60815 4.6677,10.50221 0.56,4.69103 2.6653,7.83684 5.8345,9.91875 1.5098,3.74129 5.421,5.08121 7.0015,8.75184 3.2948,2.15077 4.775,6.11619 8.1683,8.16838 1.6049,3.64632 5.3509,5.1514 7.0015,8.75184 2.8747,2.18197 4.4486,5.66468 7.585,7.58493 1.1732,3.3 4.5665,4.3798 5.8345,7.58493 3.2949,2.15077 4.7751,6.11619 8.1684,8.16838 4.6869,4.53157 -4.4018,1.89771 -7.0015,0.58346 -6.2745,-1.66103 0.8468,3.57649 1.167,5.83455 2.5156,1.76306 3.2163,5.34101 5.8345,7.00148 3.0862,3.23741 0.55,5.81386 -2.9173,7.00147 -2.3515,2.31606 -6.0992,3.23606 -8.1684,5.83456 -3.7174,1.16467 -5.7557,4.00855 -9.3953,5.2511 -7.3138,-0.83462 -14.7057,-1.59101 -22.6947,-1.75037 -5.6299,-1.06279 -12.0557,-1.32952 -18.3274,-1.75037 -5.5835,-0.171 -6.6339,-4.87513 -10.262,-7.00147 -2.1832,-3.06781 -5.4016,-5.10056 -7.58495,-8.16838 -3.2259,-1.05279 -4.2516,-4.30576 -7.0014,-5.83456 -1.5175,-3.53923 -3.3935,-6.71977 -4.6677,-10.5022 -2.13036,3.12077 -3.30109,7.20115 -4.66766,11.08566 -1.91327,2.57989 -4.56343,4.42291 -5.83457,7.64499 -1.34796,4.66103 -2.74598,9.27205 -3.50072,14.52633 -1.70216,4.36691 -2.62883,9.50935 -3.50066,14.70655 -1.41337,4.18671 -2.36412,8.83597 -2.91728,13.88279 -2.04472,4.10219 3.03736,10.66813 0,14.00295 -2.49814,5.12009 4.8576,6.72536 7.58486,6.41801 4.25586,-1.52685 8.2204,-2.57282 11.08566,-1.16691 2.96557,-2.6351 5.94397,0.82746 7.58497,2.91728 1.3163,1.68571 5.5344,11.48491 1.1669,8.16838 -2.0222,-1.32042 -6.0118,-6.38902 -8.16842,-3.44066 -0.76511,6.48692 -13.19601,3.81877 -18.57251,6.74674 -4.50692,2.28089 -3.94587,-1.86077 -8.2664,-3.30608 -1.13231,-2.15336 -6.49371,6.84698 -5.25112,5.25111 -3.60085,2.2337 -10.6648,1.00433 -14.58641,2.91727 -3.91916,-0.87554 -6.16229,-4.81503 -9.3353,-0.58345 -3.56221,2.2318 -9.50899,-0.27336 -14.12309,-0.58346 -10.06872,0.50533 -1.49698,-4.01062 -8.04823,-5.2511 -2.06098,1.23606 -10.26333,5.92341 -7.00147,0.58345 1.27678,-3.58534 3.57977,-6.14449 7.58493,-7.00147 4.4334,-0.46017 8.77671,-4.26857 11.66911,0 3.68529,0.85253 10.74013,-0.11408 13.41949,-2.33382 3.09478,-2.15633 7.74762,-2.75459 10.50221,-5.2511 0.49728,-5.20287 3.76446,-7.63585 10.099,-7.00147 8.31146,-0.16575 -5.06528,-2.56257 -2.51408,-5.25111 2.8627,-2.58288 3.89343,-6.99772 4.66767,-11.66912 1.65145,-4.37758 2.74045,-9.31766 3.50074,-14.5864 1.82439,-4.2046 1.86074,-10.19733 3.50074,-14.5864 0.43227,-5.71696 2.39341,-12.07687 -0.58345,-16.39683 -1.41554,-6.33058 -3.4834,-3.95597 -5.83457,-4.02412 -2.29275,-3.54182 -0.40189,-11.26724 -2.91729,-14.5864 -1.6868,-2.98088 -5.31472,-4.02059 -7.00148,-7.00147 -3.30001,-1.17316 -4.3798,-4.56653 -7.58493,-5.83456 -1.94782,-2.91432 -5.18836,-4.5359 -7.58492,-7.00147 -3.44248,-4.26477 0.87038,10.10531 -3.50074,2.91728 -2.32983,-2.92127 -4.53128,-5.97094 -7.58493,-8.16839 -1.97858,-3.27252 -4.72019,-5.78201 -7.58493,-8.16838 0.18101,6.82412 -3.36023,4.79045 -5.83456,1.75037 -5.2833,-5.92543 -3.06697,4.58186 -3.50073,9.91875 -2.53473,-1.93842 -3.29983,-5.6465 -5.83456,-7.58493 -1.30777,-1.91165 -6.35726,-4.38545 -5.2511,-6.35794 0.11058,5.6167 0.22056,15.17791 -4.66765,9.27523 -3.55515,-1.50148 -6.27321,-3.84003 -9.91875,-5.25111 -4.29815,-3.63993 -5.10254,-2.80516 -2.91728,2.91728 2.20581,2.8508 2.55408,7.55916 4.66765,10.50221 1.30856,4.52823 3.14017,8.40325 1.75036,14.18317 -1.47337,4.69007 -0.96445,11.36246 -2.91728,15.57308 -2.00991,3.24119 -4.4081,6.0941 -6.41801,9.3353 -2.0583,2.22038 -4.17036,4.38699 -5.2511,7.58492 -1.04221,4.40338 -3.00998,7.8812 -4.08419,12.25258 -1.68723,3.38941 -2.60498,7.54831 -4.0842,11.14573 -1.4609,3.98468 -2.82205,8.06912 -4.08419,12.25258 -1.58175,3.93647 -2.94445,7.40553 -0.58345,11.08566 4.11788,3.09205 -2.59718,7.93899 2.33382,9.27522 2.51651,3.46622 7.09177,1.62081 10.50221,0 5.0237,-2.81211 7.4287,1.24501 11.66911,2.33382 2.10075,3.15037 3.88402,6.61819 4.66765,11.08567 z m 104.50631,-218.42348 c -1.79187,-0.30121 0.30123,1.79192 0,0 z m -181.45476,212.37796 c -1.99313,2.74196 -0.091,6.06025 0,0 z m 193.12393,-218.79598 c -2.3179,-0.11346 0.8159,2.9068 0,0 z m -82.85076,226.96436 c 3.83901,-6.64236 -3.78386,3.33504 0,0 z m 47.25995,-284.72649 c 0.30115,-1.79191 -1.79194,0.30121 0,0 z m 0,0 c -0.30123,1.79191 1.79187,-0.3012 0,0 z m 24.50509,65.34707 c 0.30123,-1.79191 -1.79186,0.3012 0,0 z m 0,0 c -0.30123,1.7919 1.79195,-0.30122 0,0 z m 18.08727,12.83603 c -0.3013,1.7919 1.7918,-0.30122 0,0 z m -7.58505,71.76508 c 0.5636,-4.1167 -2.0041,-0.26646 0,0 z m 19.25405,-18.08714 c 1.792,0.30121 -0.3011,-1.79191 0,0 z m -53.6779,-131.27758 c -0.30123,1.79191 1.79186,-0.30122 0,0 z m 53.6779,129.52721 c -1.7919,-0.30121 0.3012,1.79191 0,0 z m -18.08715,-70.59816 c -1.7919,-0.30121 0.3012,1.79191 0,0 z m 17.50375,69.43125 c -1.7919,-0.30121 0.3012,1.79191 0,0 z m -173.28645,148.78126 c 1.79191,0.30121 -0.30121,-1.79191 0,0 z m 0.58346,0.58346 c 1.7919,0.30121 -0.30121,-1.79191 0,0 z"
       fill="#050507"
       fill-rule="evenodd"
       id="path7-8"
       style="stroke-width:1" />
    <text
       xml:space="preserve"
       transform="matrix(3.9782456,0,0,3.9782456,2361.2582,61.1086)"
       id="text10-5-4"
       style="font-size:26.6667px;line-height:100%;font-family:Serif;-inkscape-font-specification:Serif;writing-mode:lr-tb;direction:ltr;white-space:pre;shape-inside:url(#rect10-5-9);display:inline;fill:#ffffff;stroke-width:7.54101;stroke-linejoin:round" />
    <text
       xml:space="preserve"
       transform="matrix(4.3601182,0,0,4.3601182,2605.9366,182.63335)"
       id="text10-5-3-3"
       style="font-size:26.6667px;line-height:100%;font-family:Serif;-inkscape-font-specification:Serif;writing-mode:lr-tb;direction:ltr;white-space:pre;shape-inside:url(#rect10-5-5-5);display:inline;fill:#ffffff;stroke-width:6.88054;stroke-linejoin:round"><tspan
         x="-512.0625"
         y="-168.50912"
         id="tspan3"><tspan
   style="fill:#000000"
   id="tspan1">Taming   </tspan>the<tspan
   style="fill:#000000"
   id="tspan2">   Rook</tspan></tspan></text>
  </g>
</svg>
